<svg
xmlns="http://www.w3.org/2000/svg"
width="804"
height="804">
<g
transform="translate(-90.19347,-92.550929)">
<path
style="fill:none;stroke:#556666;stroke-width:16;stroke-linecap:butt;stroke-linejoin:miter;stroke-miterlimit:4;stroke-opacity:1;stroke-dasharray:none"
d="m 614.9829,394.13117 c 19.61654,76.0824 22.31503,167.6122 19.70534,241.63323 -54.95642,12.93752 -108.44939,36.71828 -164.86925,38.81255 -57.88102,2.1485 -107.08369,-18.11252 -171.62552,-27.16878 0,0 7.41194,-210.12918 60.33654,-295.66687 29.01232,-46.89023 44.14543,-95.41567 130.27883,-101.93677 74.21688,5.55811 92.57872,48.98399 115.23152,107.02266"
/>
<path
style="fill:none;stroke:#556666;stroke-width:16;stroke-linecap:butt;stroke-linejoin:miter;stroke-miterlimit:4;stroke-opacity:1;stroke-dasharray:none"
d="m 562.50773,448.29096 c -12.12183,0 -49.10108,-70.57116 -49.49747,-111.11677 -0.16079,-16.44676 -3.0301,-46.3085 19.19289,-45.45687 19.02911,0.72923 26.71059,14.03202 32.32488,61.6193 m -10.82693,49.9458 c -4.81017,13.89326 -9.37611,24.80549 -9.37611,24.80549"
/>
<path
style="fill:none;stroke:#556666;stroke-width:16;stroke-linecap:butt;stroke-linejoin:miter;stroke-miterlimit:4;stroke-opacity:1;stroke-dasharray:none"
d="m 513.01025,344.24525 c 55.39279,11.37491 102.43493,8.34827 132.32999,31.31473 10.62909,8.16565 -40.07944,24.27191 -62.62946,26.26396 -32.92059,2.90818 -50.50763,3.03046 -50.50763,3.03046"
/>
<path
style="fill:none;stroke:#556666;stroke-width:16;stroke-linecap:butt;stroke-linejoin:miter;stroke-miterlimit:4;stroke-opacity:1;stroke-dasharray:none"
d="m 374.29448,399.80364 c 0,0 -16.21873,52.70405 -20.94807,79.79344 -3.43069,19.65084 -5.3159,59.60761 -5.3159,59.60761 0,0 37.33823,18.19251 57.5787,20.20305 19.28609,1.91575 57.57869,-8.08122 57.57869,-8.08122 0,0 3.26202,-39.03546 2.97996,-58.58801 -0.30209,-20.94101 -5.00027,-62.63029 -5.00027,-62.63029 l 0,0"
/>
<path
style="fill:none;stroke:#556666;stroke-width:16;stroke-linecap:butt;stroke-linejoin:miter;stroke-miterlimit:4;stroke-opacity:1;stroke-dasharray:none"
d="m 361.16249,546.27575 c -8.13756,23.87188 -1.18796,60.1046 6.06091,62.62946 40.43282,14.08319 87.63232,-56.96172 76.7716,-54.54823"
/>
<path
style="fill:none;stroke:#556666;stroke-width:16;stroke-linecap:butt;stroke-linejoin:miter;stroke-miterlimit:4;stroke-opacity:1;stroke-dasharray:none"
d="m 377.93409,664.44331 c 0,0 16.21816,27.87562 25.75566,40.8394 7.22921,9.82625 12.39293,23.37663 23.74181,27.85096 11.03516,4.35065 23.51632,-4.77582 35.35534,-4.0406 11.41154,0.70867 23.33205,13.61889 33.33503,8.08121 4.65784,-2.57859 -1.65027,-13.94066 5.05077,-15.15228 12.99826,-2.35023 13.72998,-14.35766 13.13198,-23.23351 -0.82391,-12.22898 -22.22335,-29.29443 -22.22335,-29.29443"
/>
<path
style="fill:none;stroke:#556666;stroke-width:16;stroke-linecap:butt;stroke-linejoin:miter;stroke-miterlimit:4;stroke-opacity:1;stroke-dasharray:none"
d="m 501.1727,670.50421 c 0,0 9.15378,25.27408 20.20305,30.30458 4.78938,2.18051 10.40581,-1.6829 15.65737,-2.02031 9.07266,-0.58292 19.70963,5.04298 27.27411,0 5.46323,-3.64216 3.54502,-12.99986 7.57615,-18.18274 4.13449,-5.31577 15.17423,-5.46038 16.16243,-12.12183 0.91909,-6.19551 -11.11167,-15.15229 -11.11167,-15.15229"
/>
<path
style="fill:none;stroke:#556666;stroke-width:16;stroke-linecap:butt;stroke-linejoin:miter;stroke-miterlimit:4;stroke-opacity:1;stroke-dasharray:none"
d="m 638.85739,557.65005 c 17.37112,1.71674 33.92777,0.14896 31.31472,-7.07107 -0.83862,-2.31719 4.95453,-14.6539 -8.13171,-47.47634 -14.67238,-36.80072 -39.34546,-60.60998 -39.34546,-60.60998"
/>
<path
style="fill:none;stroke:#556666;stroke-width:16;stroke-linecap:butt;stroke-linejoin:miter;stroke-miterlimit:4;stroke-opacity:1;stroke-dasharray:none"
d="m 630.28456,587.15185 c 27.52352,-1.42543 28.2166,-34.19589 27.27413,-27.27411"
/>
</g>
</svg>
