<?xml version="1.0" encoding="UTF-8" standalone="no"?>
<!-- Created with Inkscape (http://www.inkscape.org/) -->

<svg
   xmlns:dc="http://purl.org/dc/elements/1.1/"
   xmlns:cc="http://creativecommons.org/ns#"
   xmlns:rdf="http://www.w3.org/1999/02/22-rdf-syntax-ns#"
   xmlns:svg="http://www.w3.org/2000/svg"
   xmlns="http://www.w3.org/2000/svg"
   xmlns:xlink="http://www.w3.org/1999/xlink"
   xmlns:sodipodi="http://sodipodi.sourceforge.net/DTD/sodipodi-0.dtd"
   xmlns:inkscape="http://www.inkscape.org/namespaces/inkscape"
   width="519.0282"
   height="519.02814"
   id="svg2"
   version="1.1"
   inkscape:version="0.92.1 r"
   sodipodi:docname="icon_packages.svg">
  <defs
     id="defs4">
    <linearGradient
       id="linearGradient3772">
      <stop
         style="stop-color:#7e00ff;stop-opacity:1;"
         offset="0"
         id="stop3774" />
      <stop
         id="stop3782"
         offset="0.5"
         style="stop-color:#00e0f4;stop-opacity:1;" />
      <stop
         style="stop-color:#00ff5a;stop-opacity:1;"
         offset="1"
         id="stop3776" />
    </linearGradient>
    <linearGradient
       inkscape:collect="always"
       xlink:href="#linearGradient3772"
       id="linearGradient3875"
       x1="309.41885"
       y1="157.08032"
       x2="306.84756"
       y2="667.08032"
       gradientUnits="userSpaceOnUse" />
    <linearGradient
       inkscape:collect="always"
       xlink:href="#linearGradient3772"
       id="linearGradient847"
       x1="178.53259"
       y1="255.23601"
       x2="463.05051"
       y2="702.73358"
       gradientUnits="userSpaceOnUse"
       gradientTransform="translate(-8.0812204,-16.162441)" />
  </defs>
  <sodipodi:namedview
     id="base"
     pagecolor="#ffffff"
     bordercolor="#666666"
     borderopacity="1.0"
     inkscape:pageopacity="0.0"
     inkscape:pageshadow="2"
     inkscape:zoom="0.49497475"
     inkscape:cx="404.36541"
     inkscape:cy="364.88471"
     inkscape:document-units="px"
     inkscape:current-layer="layer1"
     showgrid="false"
     fit-margin-top="0"
     fit-margin-left="0"
     fit-margin-right="0"
     fit-margin-bottom="0"
     inkscape:window-width="1920"
     inkscape:window-height="1034"
     inkscape:window-x="1368"
     inkscape:window-y="23"
     inkscape:window-maximized="1"
     showguides="true"
     inkscape:guide-bbox="true" />
  <metadata
     id="metadata7">
    <rdf:RDF>
      <cc:Work
         rdf:about="">
        <dc:format>image/svg+xml</dc:format>
        <dc:type
           rdf:resource="http://purl.org/dc/dcmitype/StillImage" />
        <dc:title></dc:title>
      </cc:Work>
    </rdf:RDF>
  </metadata>
  <g
     inkscape:label="Layer 1"
     inkscape:groupmode="layer"
     id="layer1"
     transform="translate(-87.152591,-176.52937)">
    <path
       style="fill:#000000;stroke-width:1.06666672"
       d=""
       id="path3838"
       inkscape:connector-curvature="0" />
    <path
       style="fill:#000000;stroke-width:1.06666672"
       d=""
       id="path3836"
       inkscape:connector-curvature="0" />
    <path
       style="color:#000000;font-style:normal;font-variant:normal;font-weight:normal;font-stretch:normal;font-size:medium;line-height:normal;font-family:sans-serif;font-variant-ligatures:normal;font-variant-position:normal;font-variant-caps:normal;font-variant-numeric:normal;font-variant-alternates:normal;font-feature-settings:normal;text-indent:0;text-align:start;text-decoration:none;text-decoration-line:none;text-decoration-style:solid;text-decoration-color:#000000;letter-spacing:normal;word-spacing:normal;text-transform:none;writing-mode:lr-tb;direction:ltr;text-orientation:mixed;dominant-baseline:auto;baseline-shift:baseline;text-anchor:start;white-space:normal;shape-padding:0;clip-rule:nonzero;display:inline;overflow:visible;visibility:visible;opacity:1;isolation:auto;mix-blend-mode:normal;color-interpolation:sRGB;color-interpolation-filters:linearRGB;solid-color:#000000;solid-opacity:1;vector-effect:none;fill:url(#linearGradient847);fill-opacity:1;fill-rule:nonzero;stroke:none;stroke-width:20;stroke-linecap:butt;stroke-linejoin:round;stroke-miterlimit:4;stroke-dasharray:none;stroke-dashoffset:0;stroke-opacity:1;color-rendering:auto;image-rendering:auto;shape-rendering:auto;text-rendering:auto;enable-background:accumulate"
       d="m 340.47933,219.3942 a 10.001,10.001 0 0 0 -1.41993,0.10547 l -225.71484,32.85742 a 10.001,10.001 0 0 0 -1.19531,19.54102 l 76.39648,20.875 -55.83203,17.6582 0.004,0.0117 a 10.001,10.001 0 0 0 -6.98828,9.52344 v 275.52343 a 10.001,10.001 0 0 0 7.44531,9.66797 l 270.48437,71.4668 a 10.001,10.001 0 0 0 7.36915,-0.9043 l 161.99414,-88.99023 a 10.001,10.001 0 0 0 5.18554,-8.76367 V 299.32779 a 10.001,10.001 0 0 0 -0.0156,-0.30078 10.001,10.001 0 0 0 -0.0195,-0.42187 10.001,10.001 0 0 0 -0.0586,-0.56836 10.001,10.001 0 0 0 -0.0664,-0.44141 10.001,10.001 0 0 0 -0.11329,-0.54492 10.001,10.001 0 0 0 -0.10937,-0.42383 10.001,10.001 0 0 0 -0.16016,-0.51562 10.001,10.001 0 0 0 -0.16015,-0.44141 10.001,10.001 0 0 0 -0.20899,-0.49219 10.001,10.001 0 0 0 -0.20703,-0.42382 10.001,10.001 0 0 0 -0.2539,-0.4629 10.001,10.001 0 0 0 -0.23438,-0.38281 10.001,10.001 0 0 0 -0.31445,-0.45703 10.001,10.001 0 0 0 -0.28125,-0.36914 10.001,10.001 0 0 0 -0.3418,-0.40234 10.001,10.001 0 0 0 -0.31641,-0.33985 10.001,10.001 0 0 0 -0.37304,-0.36133 10.001,10.001 0 0 0 -0.39063,-0.34179 10.001,10.001 0 0 0 -0.35351,-0.2793 10.001,10.001 0 0 0 -0.43946,-0.31445 10.001,10.001 0 0 0 -0.41015,-0.26172 10.001,10.001 0 0 0 -0.42774,-0.24609 10.001,10.001 0 0 0 -0.45703,-0.23047 10.001,10.001 0 0 0 -0.45117,-0.20118 10.001,10.001 0 0 0 -0.45508,-0.17578 10.001,10.001 0 0 0 -0.44531,-0.1582 L 343.43636,219.83561 a 10.001,10.001 0 0 0 -2.95703,-0.44141 z m -0.76563,20.2207 182.98242,56.19727 -161.56836,23.38867 -197.46093,-53.95898 z m -115.58594,62.88086 133.73633,36.54492 a 10.001,10.001 0 0 0 4.06836,0.25196 l 156.22266,-22.61328 -113.0293,65.25781 0.0352,-0.12891 -233.75586,-62.63672 z m 334.08008,14.1543 v 255.40039 l -142.08203,78.05078 -1.31055,-250.66406 z m -412.47851,16.34961 249.08789,66.74219 1.32812,254.21093 -250.41601,-66.16406 z"
       id="path836"
       inkscape:connector-curvature="0" />
  </g>
</svg>
